<?xml version="1.0" encoding="UTF-8"?><svg id="Layer_2" xmlns="http://www.w3.org/2000/svg" xmlns:xlink="http://www.w3.org/1999/xlink" viewBox="0 0 321.32 80"><defs><style>.cls-1{fill:url(#linear-gradient);}.cls-2{fill:#0092b7;}.cls-3{fill:url(#linear-gradient-3);}.cls-4{fill:url(#linear-gradient-4);}.cls-5{fill:url(#linear-gradient-2);}</style><linearGradient id="linear-gradient" x1="0" y1="40" x2="54.53" y2="40" gradientTransform="matrix(1, 0, 0, 1, 0, 0)" gradientUnits="userSpaceOnUse"><stop offset=".3" stop-color="#70cbcf"/><stop offset=".37" stop-color="#66c6cc"/><stop offset=".48" stop-color="#4db9c7"/><stop offset=".62" stop-color="#24a4be"/><stop offset=".73" stop-color="#0092b7"/><stop offset="1" stop-color="#0092b7"/></linearGradient><linearGradient id="linear-gradient-2" x1="17.95" y1="24.01" x2="24.83" y2="66.42" gradientTransform="matrix(1, 0, 0, 1, 0, 0)" gradientUnits="userSpaceOnUse"><stop offset=".3" stop-color="#70cbcf"/><stop offset=".41" stop-color="#66c6cc"/><stop offset=".59" stop-color="#4db9c7"/><stop offset=".82" stop-color="#24a4be"/><stop offset="1" stop-color="#0092b7"/></linearGradient><linearGradient id="linear-gradient-3" x1="26.84" y1="40.66" x2="30.71" y2="63.29" xlink:href="#linear-gradient-2"/><linearGradient id="linear-gradient-4" x1="0" x2="54.53" xlink:href="#linear-gradient"/></defs><g id="Layer_1-2"><g><g><path class="cls-2" d="M76.58,27.49h5.28v3.34h.09c.8-1.36,1.88-2.35,3.24-2.97,1.36-.62,2.83-.93,4.4-.93,1.7,0,3.23,.3,4.59,.9s2.52,1.43,3.48,2.48c.96,1.05,1.68,2.29,2.18,3.71,.49,1.42,.74,2.95,.74,4.59s-.26,3.17-.79,4.59-1.26,2.66-2.2,3.71c-.94,1.05-2.08,1.88-3.41,2.48s-2.78,.9-4.36,.9c-1.05,0-1.98-.11-2.78-.32-.8-.22-1.51-.49-2.13-.83-.62-.34-1.14-.7-1.58-1.09-.43-.39-.79-.76-1.07-1.14h-.14v13.39h-5.56V27.49Zm18.44,11.12c0-.87-.15-1.7-.44-2.5-.29-.8-.73-1.51-1.3-2.13-.57-.62-1.26-1.11-2.06-1.48-.8-.37-1.71-.56-2.73-.56s-1.93,.19-2.73,.56c-.8,.37-1.49,.87-2.06,1.48-.57,.62-1,1.33-1.3,2.13-.29,.8-.44,1.64-.44,2.5s.15,1.7,.44,2.5c.29,.8,.73,1.51,1.3,2.13,.57,.62,1.26,1.11,2.06,1.48,.8,.37,1.71,.56,2.73,.56s1.93-.19,2.73-.56c.8-.37,1.49-.87,2.06-1.48,.57-.62,1-1.33,1.3-2.13,.29-.8,.44-1.64,.44-2.5Z"/><path class="cls-2" d="M119.68,46.67h-.14c-.8,1.27-1.82,2.19-3.06,2.76-1.24,.57-2.59,.86-4.08,.86-1.02,0-2.02-.14-2.99-.42-.97-.28-1.84-.69-2.59-1.25-.76-.56-1.37-1.25-1.83-2.08-.46-.83-.7-1.81-.7-2.92,0-1.21,.22-2.23,.65-3.08,.43-.85,1.01-1.56,1.74-2.13,.73-.57,1.57-1.03,2.53-1.37,.96-.34,1.95-.59,2.99-.76,1.03-.17,2.08-.28,3.13-.32,1.05-.05,2.04-.07,2.97-.07h1.39v-.6c0-1.39-.48-2.43-1.44-3.13-.96-.7-2.18-1.04-3.66-1.04-1.17,0-2.27,.21-3.29,.62s-1.9,.98-2.64,1.69l-2.92-2.92c1.24-1.27,2.68-2.18,4.33-2.73,1.65-.56,3.36-.83,5.12-.83,1.58,0,2.9,.18,3.99,.53,1.08,.36,1.98,.81,2.69,1.37,.71,.56,1.26,1.2,1.65,1.92,.39,.73,.66,1.46,.83,2.2,.17,.74,.27,1.46,.3,2.15,.03,.7,.05,1.31,.05,1.83v12.79h-5v-3.06Zm-.32-6.91h-1.16c-.77,0-1.64,.03-2.59,.09-.96,.06-1.86,.21-2.71,.44-.85,.23-1.57,.57-2.15,1.02-.59,.45-.88,1.07-.88,1.88,0,.53,.12,.97,.35,1.32,.23,.36,.53,.66,.9,.9,.37,.25,.79,.42,1.25,.53,.46,.11,.93,.16,1.39,.16,1.92,0,3.33-.46,4.24-1.37s1.37-2.15,1.37-3.73v-1.25Z"/><path class="cls-2" d="M130.67,27.49h5.28v3.34h.09c.8-1.36,1.88-2.35,3.24-2.97,1.36-.62,2.83-.93,4.4-.93,1.7,0,3.23,.3,4.59,.9s2.52,1.43,3.48,2.48c.96,1.05,1.68,2.29,2.18,3.71,.49,1.42,.74,2.95,.74,4.59s-.26,3.17-.79,4.59-1.26,2.66-2.2,3.71c-.94,1.05-2.08,1.88-3.41,2.48s-2.78,.9-4.36,.9c-1.05,0-1.98-.11-2.78-.32-.8-.22-1.51-.49-2.13-.83-.62-.34-1.14-.7-1.58-1.09-.43-.39-.79-.76-1.07-1.14h-.14v13.39h-5.56V27.49Zm18.44,11.12c0-.87-.15-1.7-.44-2.5-.29-.8-.73-1.51-1.3-2.13-.57-.62-1.26-1.11-2.06-1.48-.8-.37-1.71-.56-2.73-.56s-1.93,.19-2.73,.56c-.8,.37-1.49,.87-2.06,1.48-.57,.62-1,1.33-1.3,2.13-.29,.8-.44,1.64-.44,2.5s.15,1.7,.44,2.5c.29,.8,.73,1.51,1.3,2.13,.57,.62,1.26,1.11,2.06,1.48,.8,.37,1.71,.56,2.73,.56s1.93-.19,2.73-.56c.8-.37,1.49-.87,2.06-1.48,.57-.62,1-1.33,1.3-2.13,.29-.8,.44-1.64,.44-2.5Z"/><path class="cls-2" d="M164.31,40.56c.19,1.67,.83,2.97,1.95,3.89s2.46,1.39,4.03,1.39c1.39,0,2.56-.29,3.5-.86,.94-.57,1.77-1.29,2.48-2.16l3.99,3.01c-1.3,1.61-2.75,2.75-4.36,3.43-1.61,.68-3.29,1.02-5.05,1.02-1.67,0-3.24-.28-4.73-.83-1.48-.56-2.77-1.34-3.85-2.36-1.08-1.02-1.94-2.25-2.57-3.68-.63-1.44-.95-3.04-.95-4.8s.32-3.36,.95-4.8c.63-1.44,1.49-2.67,2.57-3.68,1.08-1.02,2.36-1.81,3.85-2.36,1.48-.56,3.06-.83,4.73-.83,1.54,0,2.96,.27,4.24,.81,1.28,.54,2.38,1.32,3.29,2.34,.91,1.02,1.62,2.28,2.13,3.78,.51,1.5,.76,3.22,.76,5.17v1.53h-16.96Zm11.4-4.17c-.03-1.64-.54-2.93-1.53-3.87-.99-.94-2.36-1.41-4.12-1.41-1.67,0-2.99,.48-3.96,1.44-.97,.96-1.57,2.24-1.78,3.85h11.4Z"/><path class="cls-2" d="M186.46,27.49h5.56v3.52h.09c.62-1.3,1.5-2.3,2.64-3.01,1.14-.71,2.46-1.07,3.94-1.07,.34,0,.67,.03,1,.09,.32,.06,.66,.14,1,.23v5.38c-.46-.12-.92-.22-1.37-.3-.45-.08-.89-.12-1.32-.12-1.3,0-2.34,.24-3.13,.72-.79,.48-1.39,1.03-1.81,1.65-.42,.62-.69,1.24-.83,1.85-.14,.62-.21,1.08-.21,1.39v11.91h-5.56V27.49Z"/><path class="cls-2" d="M218.86,34.16c-.65-.68-1.33-1.22-2.04-1.62s-1.44-.6-2.18-.6c-1.02,0-1.93,.19-2.73,.56-.8,.37-1.49,.87-2.06,1.48s-1,1.33-1.3,2.13c-.29,.8-.44,1.64-.44,2.5s.15,1.7,.44,2.5c.29,.8,.73,1.51,1.3,2.13,.57,.62,1.26,1.11,2.06,1.48,.8,.37,1.71,.56,2.73,.56,.86,0,1.67-.18,2.41-.53,.74-.35,1.37-.87,1.9-1.55l3.71,3.99c-.56,.56-1.2,1.04-1.92,1.44-.73,.4-1.46,.73-2.2,.97-.74,.25-1.45,.42-2.13,.53s-1.27,.16-1.76,.16c-1.67,0-3.24-.28-4.73-.83-1.48-.56-2.77-1.34-3.85-2.36-1.08-1.02-1.94-2.25-2.57-3.68-.63-1.44-.95-3.04-.95-4.8s.32-3.36,.95-4.8c.63-1.44,1.49-2.67,2.57-3.68,1.08-1.02,2.36-1.81,3.85-2.36,1.48-.56,3.06-.83,4.73-.83,1.42,0,2.85,.27,4.29,.81,1.44,.54,2.7,1.4,3.78,2.57l-3.85,3.85Z"/><path class="cls-2" d="M226.09,14.7h5.56V49.73h-5.56V14.7Z"/><path class="cls-2" d="M237.39,19.93c0-.9,.33-1.68,1-2.34,.66-.66,1.51-1,2.53-1s1.88,.32,2.57,.95c.69,.63,1.04,1.43,1.04,2.39s-.35,1.75-1.04,2.39c-.7,.63-1.55,.95-2.57,.95s-1.86-.33-2.53-1c-.66-.66-1-1.44-1-2.34Zm.79,7.55h5.56v22.25h-5.56V27.49Z"/><path class="cls-2" d="M250.14,27.49h5.28v3.34h.09c.8-1.36,1.88-2.35,3.24-2.97,1.36-.62,2.83-.93,4.4-.93,1.7,0,3.23,.3,4.59,.9s2.52,1.43,3.48,2.48c.96,1.05,1.68,2.29,2.18,3.71,.49,1.42,.74,2.95,.74,4.59s-.26,3.17-.79,4.59-1.26,2.66-2.2,3.71c-.94,1.05-2.08,1.88-3.41,2.48s-2.78,.9-4.36,.9c-1.05,0-1.98-.11-2.78-.32-.8-.22-1.51-.49-2.13-.83-.62-.34-1.14-.7-1.58-1.09-.43-.39-.79-.76-1.07-1.14h-.14v13.39h-5.56V27.49Zm18.44,11.12c0-.87-.15-1.7-.44-2.5-.29-.8-.73-1.51-1.3-2.13-.57-.62-1.26-1.11-2.06-1.48-.8-.37-1.71-.56-2.73-.56s-1.93,.19-2.73,.56c-.8,.37-1.49,.87-2.06,1.48-.57,.62-1,1.33-1.3,2.13-.29,.8-.44,1.64-.44,2.5s.15,1.7,.44,2.5c.29,.8,.73,1.51,1.3,2.13,.57,.62,1.26,1.11,2.06,1.48,.8,.37,1.71,.56,2.73,.56s1.93-.19,2.73-.56c.8-.37,1.49-.87,2.06-1.48,.57-.62,1-1.33,1.3-2.13,.29-.8,.44-1.64,.44-2.5Z"/><path class="cls-2" d="M282.62,44.45c.77,0,1.43,.27,1.97,.81s.81,1.2,.81,1.97-.29,1.43-.86,1.97c-.57,.54-1.21,.81-1.92,.81s-1.35-.27-1.92-.81c-.57-.54-.86-1.2-.86-1.97s.27-1.43,.81-1.97,1.2-.81,1.97-.81Z"/><path class="cls-2" d="M292.22,30.82c1.11-1.14,2.43-1.99,3.96-2.53,1.53-.54,3.08-.81,4.66-.81,3.21,0,5.53,.76,6.95,2.27,1.42,1.51,2.13,3.82,2.13,6.91v9.32c0,.62,.03,1.26,.09,1.92,.06,.67,.14,1.28,.23,1.83h-3.48c-.12-.49-.19-1.04-.21-1.65-.02-.6-.02-1.13-.02-1.6h-.09c-.71,1.11-1.66,2.02-2.85,2.73s-2.62,1.07-4.29,1.07c-1.11,0-2.16-.14-3.13-.42-.97-.28-1.82-.69-2.55-1.23-.73-.54-1.31-1.21-1.74-2.02-.43-.8-.65-1.73-.65-2.78,0-1.79,.46-3.2,1.39-4.22s2.08-1.78,3.45-2.27c1.37-.49,2.86-.8,4.45-.93,1.59-.12,3.05-.19,4.38-.19h1.39v-.65c0-1.58-.47-2.76-1.41-3.57s-2.26-1.21-3.96-1.21c-1.17,0-2.33,.19-3.45,.58-1.13,.39-2.12,.98-2.99,1.78l-2.27-2.36Zm10.47,8.48c-2.32,0-4.16,.33-5.51,.97-1.36,.65-2.04,1.71-2.04,3.2,0,1.36,.46,2.33,1.37,2.9,.91,.57,2.05,.86,3.41,.86,1.05,0,1.97-.18,2.76-.53,.79-.36,1.44-.83,1.97-1.41,.53-.59,.93-1.27,1.21-2.06,.28-.79,.43-1.63,.46-2.53v-1.39h-3.62Z"/><path class="cls-2" d="M316.04,19.56c0-.71,.25-1.33,.76-1.85s1.13-.79,1.88-.79,1.37,.26,1.88,.79,.76,1.14,.76,1.85c0,.77-.25,1.41-.74,1.9s-1.13,.74-1.9,.74-1.41-.25-1.9-.74-.74-1.13-.74-1.9Zm.83,8.48h3.61v21.69h-3.61V28.04Z"/></g><g><path class="cls-1" d="M43.99,0L0,25.56l.27,1.58,7.59,44.98,11.2-7.79h0l2.47,15.67,33-23.75L43.99,0ZM22.49,56.3l-3.17-20.09,12.46-8.04h0l3.43,19.29-12.72,8.84Zm.8,5.09l17-11.82-4.56-25.64-.61-3.43-20.85,13.45,3.99,25.29h0l-7.05,4.9L5.1,27.95h0L40.64,7.3l8.8,46.91-24.5,17.63-1.65-10.45Z"/><g><polygon class="cls-5" points="35.73 23.93 31.17 24.74 31.78 28.18 31.78 28.17 35.2 47.46 18.26 59.24 18.26 59.24 11.21 64.14 5.1 27.95 5.1 27.95 4.84 26.37 .27 27.14 7.86 72.12 19.06 64.33 19.06 64.33 40.29 49.57 35.73 23.93"/><polygon class="cls-3" points="14.27 33.96 18.26 59.24 35.2 47.46 22.49 56.3 19.31 36.21 31.78 28.18 31.17 24.74 35.73 23.93 35.12 20.5 14.27 33.96"/><polygon class="cls-4" points="43.99 0 0 25.56 .27 27.14 4.84 26.37 5.1 27.95 40.64 7.3 49.44 54.21 24.94 71.84 23.29 61.39 40.29 49.57 19.06 64.33 21.54 80 54.53 56.25 43.99 0"/></g></g></g></g></svg>